<svg width="117" height="30" viewBox="0 0 184 46" fill="none" xmlns="http://www.w3.org/2000/svg">
    <g clip-path="url(#clip0)">
        <path d="M142.357 21.3231L121.259 0.231346C121.15 0.122466 121.012 0.048253 120.861 0.0180643C120.71 -0.0121245 120.553 0.00306325 120.411 0.0617123C120.268 0.120361 120.147 0.219845 120.061 0.347619C119.975 0.475393 119.929 0.625734 119.928 0.779685V18.5162L113.538 12.1318C113.429 12.0227 113.29 11.9485 113.139 11.9184C112.987 11.8883 112.831 11.9037 112.688 11.9627C112.546 12.0217 112.424 12.1217 112.338 12.2499C112.253 12.3781 112.207 12.5289 112.207 12.6831V30.9976C112.206 31.5712 112.318 32.1394 112.537 32.6695C112.756 33.1996 113.078 33.681 113.485 34.0861L121.799 42.3853C122.618 43.2003 123.726 43.6584 124.881 43.6598H130.966C132.121 43.6592 133.228 43.2009 134.046 42.3853L142.36 34.0861C142.764 33.6819 143.085 33.2018 143.304 32.6734C143.523 32.1449 143.635 31.5784 143.634 31.0065V24.4057C143.635 23.8331 143.522 23.266 143.303 22.737C143.084 22.208 142.762 21.7275 142.357 21.3231Z" fill="#FA005A"></path>
        <path d="M135.922 29.0471C135.921 29.3927 135.784 29.7241 135.54 29.9689L128.841 36.6912C128.72 36.8135 128.576 36.9106 128.417 36.9769C128.258 37.0432 128.087 37.0773 127.915 37.0773C127.743 37.0773 127.572 37.0432 127.413 36.9769C127.254 36.9106 127.11 36.8135 126.989 36.6912L120.305 29.96C120.062 29.7179 119.923 29.3901 119.919 29.0471V26.4802C119.92 26.3083 119.954 26.1382 120.02 25.9795C120.086 25.8208 120.183 25.6767 120.305 25.5555L122.712 23.1487C122.957 22.904 123.29 22.7666 123.636 22.7666C123.983 22.7666 124.315 22.904 124.561 23.1487L127.925 26.5158L131.283 23.1487C131.529 22.904 131.861 22.7666 132.208 22.7666C132.555 22.7666 132.887 22.904 133.133 23.1487L135.537 25.5555C135.659 25.6767 135.755 25.8208 135.821 25.9795C135.888 26.1382 135.922 26.3083 135.922 26.4802V29.0471Z" fill="#FFC500"></path>
        <path d="M174.24 16.6846C172.518 16.6851 170.847 17.2679 169.498 18.3385L168.422 19.2277C168.259 19.3543 168.058 19.4231 167.852 19.4231C167.645 19.4231 167.444 19.3543 167.281 19.2277L166.202 18.3385C164.853 17.2679 163.182 16.6851 161.46 16.6846H161.261C158.668 16.6846 156.391 18.1014 155.126 20.5378C155.1 20.5876 155.059 20.6275 155.009 20.6512C154.958 20.6748 154.901 20.6808 154.847 20.6682C154.793 20.6555 154.744 20.625 154.709 20.5814C154.674 20.5379 154.655 20.4839 154.654 20.4281V17.6983C154.654 17.4805 154.568 17.2717 154.414 17.1177C154.26 16.9637 154.051 16.8772 153.833 16.8772H148.134C147.915 16.878 147.705 16.9655 147.551 17.1205C147.396 17.2755 147.31 17.4854 147.31 17.7042V40.2009C147.31 40.4218 147.397 40.6336 147.554 40.7898C147.71 40.946 147.922 41.0338 148.142 41.0338H153.821C154.042 41.0338 154.254 40.946 154.41 40.7898C154.567 40.6336 154.654 40.4218 154.654 40.2009V26.7799C154.654 26.4108 154.726 26.0453 154.867 25.7042C155.009 25.3631 155.215 25.0532 155.476 24.7922C155.737 24.5312 156.047 24.3242 156.388 24.1832C156.73 24.0421 157.095 23.9697 157.464 23.9701H158.902C159.271 23.9697 159.637 24.0421 159.978 24.1831C160.319 24.3241 160.629 24.531 160.891 24.792C161.152 25.053 161.359 25.3629 161.5 25.704C161.642 26.0451 161.715 26.4107 161.715 26.7799L161.732 40.2039C161.732 40.3131 161.754 40.4213 161.796 40.5221C161.838 40.623 161.899 40.7146 161.976 40.7918C162.054 40.8689 162.146 40.9299 162.247 40.9715C162.348 41.013 162.456 41.0342 162.565 41.0338H168.244C168.465 41.0338 168.677 40.946 168.833 40.7898C168.989 40.6336 169.077 40.4218 169.077 40.2009V26.7799C169.077 26.0347 169.373 25.32 169.9 24.7931C170.427 24.2661 171.142 23.9701 171.887 23.9701H173.327C173.697 23.9697 174.062 24.0421 174.403 24.1832C174.744 24.3242 175.054 24.5312 175.315 24.7922C175.576 25.0532 175.783 25.3631 175.924 25.7042C176.065 26.0453 176.138 26.4108 176.137 26.7799L176.158 40.2039C176.158 40.424 176.246 40.6351 176.401 40.7907C176.557 40.9463 176.768 41.0338 176.988 41.0338H182.67C182.779 41.0338 182.887 41.0122 182.988 40.9703C183.089 40.9284 183.181 40.867 183.258 40.7897C183.335 40.7123 183.396 40.6204 183.438 40.5194C183.479 40.4184 183.5 40.3101 183.5 40.2009V26.0834C183.516 24.8565 183.288 23.6387 182.83 22.5004C182.372 21.3621 181.692 20.3259 180.831 19.4519C179.97 18.5778 178.944 17.8831 177.813 17.4081C176.682 16.9331 175.467 16.6872 174.24 16.6846Z" fill="#F9EDD8"></path>
        <path d="M107.204 8.14566L101.928 2.86975C101.815 2.75561 101.671 2.67768 101.513 2.64589C101.356 2.6141 101.192 2.62988 101.044 2.69123C100.895 2.75258 100.769 2.85671 100.68 2.99037C100.591 3.12404 100.543 3.28118 100.544 3.4418V17.8112C100.544 17.8974 100.52 17.9819 100.475 18.0556C100.431 18.1293 100.367 18.1895 100.291 18.2298C100.215 18.27 100.129 18.2887 100.043 18.2839C99.9571 18.2791 99.874 18.251 99.8028 18.2025C98.493 17.3134 96.9396 16.8526 95.3568 16.8835H92.0401C90.8098 16.8831 89.5916 17.1251 88.4549 17.5956C87.3182 18.0662 86.2853 18.756 85.4152 19.6258C84.5452 20.4955 83.855 21.5282 83.3841 22.6648C82.9133 23.8013 82.6709 25.0195 82.6709 26.2497V29.0744V31.6976C82.6709 32.9279 82.9132 34.1463 83.3841 35.283C83.8549 36.4197 84.5451 37.4526 85.4151 38.3226C86.2851 39.1926 87.3179 39.8827 88.4546 40.3536C89.5914 40.8244 90.8097 41.0668 92.0401 41.0668H93.8837C96.4772 41.0668 98.7535 39.65 100.019 37.2136C100.044 37.1637 100.085 37.1238 100.136 37.1001C100.187 37.0765 100.244 37.0705 100.298 37.0832C100.352 37.0958 100.401 37.1264 100.436 37.1699C100.471 37.2134 100.49 37.2674 100.49 37.3232V40.2398C100.49 40.3476 100.512 40.4544 100.553 40.554C100.594 40.6536 100.655 40.7441 100.731 40.8204C100.807 40.8966 100.898 40.9571 100.997 40.9983C101.097 41.0396 101.204 41.0608 101.311 41.0608H107.011C107.23 41.06 107.439 40.973 107.593 40.8186C107.747 40.6643 107.834 40.4551 107.835 40.2368V9.66619C107.834 9.09576 107.607 8.54896 107.204 8.14566ZM89.986 31.2648V30.2334V26.6766C89.9868 25.9316 90.2831 25.2173 90.8099 24.6905C91.3367 24.1638 92.0509 23.8675 92.7959 23.8667H97.5175C98.2628 23.8667 98.9775 24.1627 99.5044 24.6897C100.031 25.2166 100.327 25.9313 100.327 26.6766V29.3679V31.2648C100.328 31.6341 100.255 31.9998 100.114 32.341C99.9733 32.6823 99.7664 32.9924 99.5055 33.2536C99.2445 33.5149 98.9346 33.7221 98.5935 33.8635C98.2524 34.0049 97.8868 34.0777 97.5175 34.0777H92.7959C92.0509 34.0769 91.3367 33.7806 90.8099 33.2538C90.2831 32.727 89.9868 32.0128 89.986 31.2678V31.2648Z" fill="#F9EDD8"></path>
        <path d="M48.6411 16.8946H42.9443C42.7265 16.8946 42.5177 16.9811 42.3637 17.1351C42.2097 17.2891 42.1232 17.4979 42.1232 17.7157V20.6293C42.1227 20.6851 42.1034 20.7391 42.0685 20.7826C42.0336 20.8261 41.9851 20.8567 41.9307 20.8693C41.8764 20.882 41.8193 20.876 41.7688 20.8524C41.7182 20.8287 41.6771 20.7888 41.652 20.7389C40.3863 18.3085 38.0952 16.8857 35.5165 16.8857H33.6699C31.1859 16.8857 28.8035 17.8725 27.047 19.629C25.2905 21.3856 24.3037 23.7679 24.3037 26.252V31.6998C24.3033 32.93 24.5453 34.1483 25.0158 35.285C25.4863 36.4217 26.1762 37.4546 27.046 38.3246C27.9157 39.1947 28.9484 39.8849 30.085 40.3557C31.2215 40.8266 32.4397 41.069 33.6699 41.069H35.5165C38.107 41.069 40.3863 39.6522 41.652 37.2158C41.6771 37.166 41.7182 37.126 41.7688 37.1024C41.8193 37.0787 41.8764 37.0727 41.9307 37.0854C41.9851 37.098 42.0336 37.1286 42.0685 37.1721C42.1034 37.2157 42.1227 37.2697 42.1232 37.3255V40.242C42.1232 40.4598 42.2097 40.6686 42.3637 40.8226C42.5177 40.9766 42.7265 41.0631 42.9443 41.0631H48.6411C48.8596 41.0631 49.0692 40.9762 49.2237 40.8217C49.3783 40.6672 49.4651 40.4576 49.4651 40.2391V17.7127C49.4647 17.6049 49.4431 17.4982 49.4014 17.3987C49.3598 17.2993 49.299 17.209 49.2225 17.133C49.146 17.057 49.0553 16.9969 48.9555 16.956C48.8557 16.9151 48.7489 16.8942 48.6411 16.8946ZM41.9602 31.2789C41.9602 31.6483 41.8875 32.0141 41.7461 32.3553C41.6048 32.6966 41.3976 33.0067 41.1364 33.2679C40.8752 33.5291 40.5651 33.7363 40.2238 33.8776C39.8826 34.019 39.5168 34.0917 39.1474 34.0917H34.4287C33.6827 34.0917 32.9673 33.7954 32.4397 33.2679C31.9122 32.7404 31.6159 32.0249 31.6159 31.2789V26.6758C31.6167 25.9303 31.9134 25.2156 32.4408 24.6888C32.9682 24.1619 33.6832 23.866 34.4287 23.866H39.1474C39.8929 23.866 40.6079 24.1619 41.1353 24.6888C41.6627 25.2156 41.9594 25.9303 41.9602 26.6758V31.2789Z" fill="#F9EDD8"></path>
        <path d="M69.1993 16.8945H68.6717C66.0812 16.8945 63.8019 18.3084 62.5362 20.7477C62.5111 20.7976 62.47 20.8375 62.4194 20.8611C62.3689 20.8848 62.3119 20.8908 62.2575 20.8781C62.2031 20.8655 62.1546 20.8349 62.1197 20.7914C62.0848 20.7479 62.0655 20.6939 62.065 20.6381V17.7037C62.0619 17.488 61.974 17.2822 61.8203 17.1308C61.6667 16.9794 61.4597 16.8945 61.2439 16.8945H55.5471C55.4388 16.8941 55.3315 16.9152 55.2313 16.9565C55.1312 16.9977 55.0402 17.0584 54.9636 17.135C54.887 17.2116 54.8263 17.3026 54.7851 17.4027C54.7438 17.5029 54.7228 17.6102 54.7231 17.7185V40.2182C54.7231 40.4383 54.8106 40.6494 54.9662 40.8051C55.1219 40.9607 55.333 41.0481 55.5531 41.0481H61.235C61.344 41.0481 61.452 41.0267 61.5526 40.985C61.6533 40.9432 61.7448 40.8821 61.8219 40.8051C61.899 40.728 61.9601 40.6365 62.0018 40.5358C62.0435 40.4351 62.065 40.3272 62.065 40.2182L62.0857 26.9721C62.0857 26.2269 62.3818 25.5122 62.9087 24.9852C63.4357 24.4583 64.1504 24.1623 64.8956 24.1623H68.3931C69.1381 24.163 69.8523 24.4593 70.3791 24.9861C70.9059 25.5129 71.2022 26.2271 71.203 26.9721L71.2208 40.2034C71.2215 40.4238 71.3096 40.6349 71.4657 40.7904C71.6219 40.946 71.8333 41.0333 72.0536 41.0333H77.7327C77.8419 41.0337 77.9501 41.0125 78.0512 40.971C78.1522 40.9295 78.244 40.8684 78.3214 40.7913C78.3988 40.7142 78.4602 40.6226 78.5021 40.5217C78.544 40.4208 78.5655 40.3126 78.5655 40.2034V26.2489C78.5624 23.7669 77.5742 21.3876 75.818 19.6336C74.0619 17.8797 71.6813 16.8945 69.1993 16.8945Z" fill="#F9EDD8"></path>
        <path d="M5.31056 11.957C4.03445 11.9578 2.81087 12.4653 1.9088 13.3679C1.00673 14.2706 0.5 15.4944 0.5 16.7706L0.5 38.4522C0.500079 39.2202 0.804963 39.9569 1.3477 40.5003L6.35982 45.5095C6.48127 45.6307 6.63592 45.7132 6.80424 45.7467C6.97256 45.7801 7.14701 45.7629 7.30556 45.6972C7.46412 45.6316 7.59967 45.5205 7.69511 45.3778C7.79055 45.2352 7.8416 45.0675 7.84182 44.8959V33.7898C7.84182 33.5752 7.92707 33.3694 8.07882 33.2177C8.23057 33.0659 8.43638 32.9807 8.65099 32.9807H17.0984C17.3275 32.9807 17.5508 32.9077 17.7357 32.7723C17.9206 32.637 18.0576 32.4463 18.1269 32.2278L19.7185 27.189C19.7619 27.0528 19.7724 26.9082 19.7495 26.7671C19.7265 26.626 19.6706 26.4923 19.5863 26.3768C19.502 26.2614 19.3917 26.1674 19.2643 26.1025C19.1369 26.0376 18.996 26.0037 18.8531 26.0034H8.65099C8.54461 26.0038 8.43922 25.9831 8.34087 25.9426C8.24252 25.9021 8.15316 25.8425 8.07794 25.7673C8.00273 25.6921 7.94314 25.6027 7.90261 25.5044C7.86209 25.406 7.84142 25.3006 7.84182 25.1942V19.696C7.84181 19.5899 7.86277 19.4848 7.90347 19.3868C7.94417 19.2888 8.00382 19.1998 8.079 19.1249C8.15417 19.05 8.2434 18.9907 8.34155 18.9503C8.43971 18.91 8.54486 18.8894 8.65099 18.8898H21.6155C21.8439 18.8899 22.0664 18.8172 22.2508 18.6824C22.4351 18.5476 22.5718 18.3576 22.641 18.1399L24.2446 13.1426C24.2879 13.0064 24.2985 12.8619 24.2755 12.7207C24.2525 12.5796 24.1966 12.4459 24.1123 12.3305C24.028 12.215 23.9177 12.121 23.7903 12.0561C23.6629 11.9912 23.522 11.9573 23.3791 11.957H5.31056Z" fill="#F9EDD8"></path>
    </g>
    <defs>
        <clipPath id="clip0">
            <rect width="183" height="45.767" fill="white" transform="translate(0.5)"></rect>
        </clipPath>
    </defs>
</svg>