<?xml version="1.0" encoding="utf-8"?>
<!-- Generator: Adobe Illustrator 19.2.0, SVG Export Plug-In . SVG Version: 6.00 Build 0)  -->
<!DOCTYPE svg PUBLIC "-//W3C//DTD SVG 1.1//EN" "http://www.w3.org/Graphics/SVG/1.1/DTD/svg11.dtd">
<svg version="1.1" id="Layer_1" xmlns="http://www.w3.org/2000/svg" xmlns:xlink="http://www.w3.org/1999/xlink" x="0px" y="0px"
	 viewBox="0 0 240.945 63.154" enable-background="new 0 0 240.945 63.154" xml:space="preserve">
<g>
	<path fill="#3bc84c" d="M209.445,31.574l25.413,18.621c3.828-5.215,6.088-11.651,6.088-18.616v-0.005H209.445z"/>
	<path fill="#3bc84c" d="M0,61.081c2.984,1.313,6.276,2.054,9.745,2.054c3.471,0,7.756-0.741,10.742-2.054L10.72,28.57L0,61.081z"/>
	<path fill="#3bc84c" d="M161.026,2.086L150.989,44.12L138.55,2.091c-0.844-2.696-13.758-2.812-14.566-0.005L112.005,44.12
		L101.964,2.091c-0.611-2.582-15.309-2.924-14.537,0l15.354,59.103c0.584,2.562,16.92,2.664,17.633,0l10.91-35.581l11.281,35.581
		c0.943,2.607,16.902,2.607,17.633,0L175.57,2.086C176.263-1.107,161.599-0.198,161.026,2.086z"/>
	<path fill="#3bc84c" d="M72.058,1.978c-0.584-2.562-16.918-2.664-17.633,0L43.515,37.56L32.233,1.978
		C31.255-0.559,17.409-0.696,18.13,1.802l18.158,59.278c0.844,2.697,13.758,2.812,14.566,0.005l11.978-42.034l10.041,42.029
		c0.611,2.583,15.309,2.924,14.537,0L72.058,1.978z"/>
	<path fill="#3bc84c" d="M209.445,49.842c-10.072,0-18.268-8.195-18.268-18.269c0-10.073,8.195-18.268,18.268-18.268
		c2.998,0,5.902,0.736,8.482,2.091h0.004c2.904,1.835,12.748-6.915,11.309-8.362l-0.002,0l0.002-0.001
		c-5.541-4.468-12.506-6.994-19.795-6.994c-17.387,0-31.533,14.146-31.533,31.534c0,17.388,14.146,31.534,31.533,31.534
		c5.998,0,11.816-1.709,16.822-4.868l-12.176-9.001C212.587,49.633,211.027,49.842,209.445,49.842z"/>
</g>
</svg>
